# xmcd
#
# Track frame offsets: 
#        150
#        17166
#        32229
#        47173
#        66816
#        78065
#        93517
#        107954
#        126146
#        140699
#        155324
#        169718
#
# Disc length: 2508 seconds
#
# Revision: 0
# Processed by: cddbd v1.5.2PL0 Copyright (c) Steve Scherf et al.
# Submitted via: ExactAudioCopy v1.0b3
#
DISCID=9b09ca0c
DTITLE=Waylon - After all
DYEAR=2011
DGENRE=Soul
TTITLE0=The escapist
TTITLE1=Lucky night
TTITLE2=After all
TTITLE3=Need a little time
TTITLE4=Jealousy
TTITLE5=Lose it
TTITLE6=Desperate situation
TTITLE7=Speed of love
TTITLE8=The satisfier
TTITLE9=Time for us
TTITLE10=Unfaithful
TTITLE11=Missing you
EXTD=
EXTT0=
EXTT1=
EXTT2=
EXTT3=
EXTT4=
EXTT5=
EXTT6=
EXTT7=
EXTT8=
EXTT9=
EXTT10=
EXTT11=
PLAYORDER=
